<?xml version="1.0" encoding="UTF-8"?>
<svg version="1.1" xmlns="http://www.w3.org/2000/svg" width="540" height="360">
<path d="M0 0 C178.2 0 356.4 0 540 0 C540 118.8 540 237.6 540 360 C361.8 360 183.6 360 0 360 C0 241.2 0 122.4 0 0 Z " fill="#FEFEFE" transform="translate(0,0)"/>
<path d="M0 0 C2.20734315 -0.00964011 4.41372631 -0.04071769 6.62084961 -0.07226562 C30.45903192 -0.25250237 55.03658037 6.33971971 75.67358398 18.24023438 C76.69709961 18.82804687 77.72061523 19.41585937 78.77514648 20.02148438 C94.41585866 29.50070388 103.34028239 41.25423303 108.42358398 58.83398438 C110.06582323 65.85911894 109.67358398 71.72382528 109.67358398 79.24023438 C39.05358398 79.24023438 -31.56641602 79.24023438 -104.32641602 79.24023438 C-104.32641602 59.87692489 -102.08155709 44.77355597 -88.38891602 30.61523438 C-65.85816855 8.43571681 -30.63649337 0.08047235 0 0 Z " fill="#292928" transform="translate(268.326416015625,199.759765625)"/>
<path d="M0 0 C13.46638645 6.7872028 22.27881259 18.77890502 27.0703125 32.84375 C27.98773506 36.75331677 28.22774918 40.41968925 28.171875 44.41015625 C28.16063599 45.47218262 28.16063599 45.47218262 28.14916992 46.55566406 C28.04435331 51.63136443 27.59413993 55.69475644 25.921875 60.47265625 C25.60347656 61.39304687 25.28507812 62.3134375 24.95703125 63.26171875 C19.71597345 77.20257955 10.09528703 87.09913637 -3.3515625 93.40625 C-17.72404048 99.02757735 -32.12481891 99.0825009 -46.3359375 93.1015625 C-60.47596494 86.13183266 -70.00294211 75.21619405 -75.16796875 60.33203125 C-76.93024411 53.99758526 -77.63504789 48.02165692 -77.078125 41.47265625 C-77.00851563 40.62316406 -76.93890625 39.77367187 -76.8671875 38.8984375 C-75.06449912 25.17797593 -67.3224739 12.82104954 -56.4453125 4.4453125 C-50.3476996 0.33680694 -44.07103391 -2.33024737 -37.078125 -4.52734375 C-25.16114184 -8.49967147 -11.05335605 -4.81129585 0 0 Z " fill="#2A2928" transform="translate(295.078125,88.52734375)"/>
<path d="M0 0 C0 1.98 0 3.96 0 6 C-0.59941406 6.06316406 -1.19882813 6.12632813 -1.81640625 6.19140625 C-5.58981748 7.58871596 -6.57177217 11.22947537 -8.33984375 14.65234375 C-10.29580707 17.418306 -11.80019387 18.05251088 -15 19 C-13.724278 14.47217838 -12.06637472 11.42050595 -9.0625 7.8125 C-8.02802734 6.55373047 -8.02802734 6.55373047 -6.97265625 5.26953125 C-2.39242685 0 -2.39242685 0 0 0 Z " fill="#353534" transform="translate(238,95)"/>
<path d="M0 0 C1.22419163 3.93795909 0.48320272 6.16112237 -1 10 C-1.99 10 -2.98 10 -4 10 C-4.33 11.98 -4.66 13.96 -5 16 C-5.66 15.67 -6.32 15.34 -7 15 C-6.42176904 10.93774452 -5.10882263 8.15237654 -2.9375 4.6875 C-2.38964844 3.80449219 -1.84179688 2.92148438 -1.27734375 2.01171875 C-0.64505859 1.01591797 -0.64505859 1.01591797 0 0 Z " fill="#373735" transform="translate(175,236)"/>
<path d="M0 0 C0.99 1.32 1.98 2.64 3 4 C1.35 5.65 -0.3 7.3 -2 9 C-2.66 7.02 -3.32 5.04 -4 3 C-2.68 2.01 -1.36 1.02 0 0 Z " fill="#333332" transform="translate(308,163)"/>
<path d="M0 0 C4.41889613 1.35021826 6.34345343 3.26115668 9 7 C8.01 8.485 8.01 8.485 7 10 C6.608125 9.195625 6.21625 8.39125 5.8125 7.5625 C4.23051809 4.76935262 4.23051809 4.76935262 1.3125 4.1875 C0.1678125 4.0946875 0.1678125 4.0946875 -1 4 C-0.67 2.68 -0.34 1.36 0 0 Z " fill="#373735" transform="translate(355,227)"/>
<path d="M0 0 C1.98 0.66 3.96 1.32 6 2 C5.34 2.66 4.68 3.32 4 4 C0.875 3.625 0.875 3.625 -2 3 C-1.34 2.01 -0.68 1.02 0 0 Z " fill="#30302E" transform="translate(342,218)"/>
</svg>
