<svg width="72" height="72" viewBox="0 0 72 72" fill="none" xmlns="http://www.w3.org/2000/svg">
<circle cx="36" cy="35.998" r="35.25" stroke="#F2F2F2" stroke-width="1.5"/>
<g clip-path="url(#clip0_24428_5560)">
<path d="M31.9629 35.0856H33.6908L32.8268 32.6914L31.9629 35.0856Z" fill="#331D1E"/>
<path d="M36 22.498C27.7154 22.498 21 27.662 21 34.0329C21 38.1517 23.8082 41.7697 28.0312 43.8066C27.8019 44.5789 26.5543 48.7778 26.5053 49.1084C26.5053 49.1084 26.475 49.356 26.6394 49.4502C26.6944 49.4773 26.7545 49.4931 26.816 49.4967C26.8775 49.5004 26.9392 49.4917 26.9971 49.4713C27.4702 49.4066 32.4779 45.9813 33.3433 45.3919C34.2235 45.5111 35.1113 45.5699 36 45.5678C44.2846 45.5678 51 40.4038 51 34.0329C51 27.662 44.2846 22.498 36 22.498ZM28.5764 32.2422C28.5577 33.8739 28.5909 35.5901 28.5635 37.1965C28.5548 37.71 28.2519 37.8633 27.8423 38.0096C27.796 38.0256 27.7462 38.029 27.6981 38.0195C27.2293 37.9294 26.8558 37.7663 26.8442 37.198C26.8111 35.5929 26.8543 33.8739 26.8313 32.2422C26.4346 32.2267 25.8692 32.2577 25.5014 32.2422C24.9909 32.2098 24.6361 31.8933 24.6577 31.4221C24.6793 30.9508 24.9375 30.6118 25.5101 30.6034C26.863 30.5837 28.5389 30.5837 29.8918 30.6034C30.4688 30.6118 30.7255 30.9523 30.7428 31.4221C30.7601 31.8919 30.4111 32.2098 29.9019 32.2422C29.5385 32.2577 28.9745 32.2267 28.5764 32.2422ZM35.8457 37.9322C35.6727 38.009 35.4848 38.0489 35.2947 38.049C34.9341 38.049 34.6587 37.9083 34.5736 37.6762L34.1409 36.5818H31.5072L31.0745 37.6762C30.9909 37.9055 30.7154 38.049 30.3534 38.049C30.1637 38.049 29.9763 38.0092 29.8038 37.9322C29.5644 37.8253 29.3351 37.5299 29.5976 36.7337L31.6731 31.4193C31.7601 31.1852 31.916 30.9813 32.1212 30.8332C32.3265 30.6851 32.5719 30.5993 32.8269 30.5865C33.0817 30.6006 33.3267 30.6871 33.5317 30.8353C33.7367 30.9836 33.8928 31.187 33.9808 31.4207L36.049 36.7323C36.313 37.5299 36.0837 37.831 35.8457 37.9322ZM40.2188 37.9322H37.4423C37.2273 37.9364 37.0193 37.8573 36.8639 37.7124C36.7085 37.5674 36.6183 37.3683 36.613 37.1586V31.4305C36.6222 31.208 36.7193 30.9977 36.884 30.8434C37.0486 30.6892 37.2681 30.603 37.4964 30.603C37.7247 30.603 37.9442 30.6892 38.1088 30.8434C38.2735 30.9977 38.3706 31.208 38.3798 31.4305V36.3891H40.2188C40.3269 36.3827 40.4353 36.398 40.5373 36.434C40.6392 36.47 40.7325 36.526 40.8114 36.5985C40.8903 36.6709 40.9532 36.7584 40.9962 36.8554C41.0391 36.9525 41.0613 37.0571 41.0613 37.1628C41.0613 37.2685 41.0391 37.3731 40.9962 37.4702C40.9532 37.5672 40.8903 37.6546 40.8114 37.7271C40.7325 37.7996 40.6392 37.8555 40.5373 37.8915C40.4353 37.9275 40.3269 37.9428 40.2188 37.9365V37.9322ZM46.9976 37.2964C46.9751 37.4629 46.9022 37.6191 46.7881 37.7449C46.6741 37.8708 46.5242 37.9606 46.3576 38.0029C46.1909 38.0452 46.0152 38.038 45.8527 37.9823C45.6903 37.9266 45.5485 37.825 45.4457 37.6903L43.4163 35.0696L43.1163 35.3622V37.2036C43.1163 37.4274 43.0252 37.6421 42.8629 37.8004C42.7006 37.9587 42.4805 38.0476 42.251 38.0476C42.0214 38.0476 41.8013 37.9587 41.639 37.8004C41.4768 37.6421 41.3856 37.4274 41.3856 37.2036V31.4362C41.3856 31.2123 41.4768 30.9976 41.639 30.8393C41.8013 30.6811 42.0214 30.5921 42.251 30.5921C42.4805 30.5921 42.7006 30.6811 42.8629 30.8393C43.0252 30.9976 43.1163 31.2123 43.1163 31.4362V33.2452L45.5308 30.8904C45.594 30.8294 45.669 30.7813 45.7515 30.749C45.8339 30.7166 45.9222 30.7006 46.0111 30.7019C46.2272 30.7074 46.4335 30.7906 46.5906 30.9355C46.7477 31.0803 46.8443 31.2767 46.862 31.4868C46.8698 31.5806 46.857 31.6749 46.8244 31.7634C46.7918 31.8519 46.7402 31.9327 46.6731 32.0002L44.6971 33.9232L46.8274 36.6761C46.9653 36.8546 47.025 37.0792 46.9933 37.3006L46.9976 37.2964Z" fill="#331D1E"/>
</g>
<defs>
<clipPath id="clip0_24428_5560">
<rect width="30" height="27" fill="white" transform="translate(21 22.498)"/>
</clipPath>
</defs>
</svg>
