<svg width="57" height="56" viewBox="0 0 57 56" fill="none" xmlns="http://www.w3.org/2000/svg">
<path d="M43.5936 52.5006C43.2252 52.502 42.8658 52.3872 42.5665 52.1724L28.4998 41.9743L14.4331 52.1724C14.1326 52.3904 13.7705 52.5072 13.3992 52.5058C13.028 52.5045 12.6668 52.3851 12.3679 52.1649C12.0689 51.9448 11.8477 51.6353 11.7363 51.2811C11.6249 50.927 11.6289 50.5466 11.7479 50.1949L17.2342 33.9451L3.01542 24.1943C2.70743 23.9833 2.47498 23.6794 2.35203 23.3269C2.22908 22.9744 2.22207 22.5919 2.33203 22.2351C2.44199 21.8784 2.66315 21.5661 2.96321 21.344C3.26326 21.1219 3.62648 21.0015 3.9998 21.0006H21.5414L26.8351 4.70916C26.9492 4.35744 27.1717 4.05087 27.4707 3.83344C27.7698 3.61602 28.1301 3.4989 28.4998 3.4989C28.8696 3.4989 29.2298 3.61602 29.5289 3.83344C29.8279 4.05087 30.0505 4.35744 30.1645 4.70916L35.4582 21.006H52.9998C53.3736 21.0059 53.7376 21.1254 54.0386 21.347C54.3395 21.5687 54.5616 21.8809 54.6722 22.238C54.7829 22.595 54.7763 22.9781 54.6535 23.3311C54.5307 23.6841 54.298 23.9885 53.9896 24.1998L39.7654 33.9451L45.2484 50.1906C45.3372 50.4536 45.3622 50.734 45.3213 51.0085C45.2804 51.2831 45.1747 51.544 45.013 51.7697C44.8514 51.9954 44.6383 52.1794 44.3915 52.3064C44.1447 52.4335 43.8712 52.5001 43.5936 52.5006Z" fill="#FFC23D"/>
</svg>
