<svg width="57" height="56" viewBox="0 0 57 56" fill="none" xmlns="http://www.w3.org/2000/svg">
<path d="M43.5918 51.5006L43.5896 51.5006C43.4325 51.5012 43.2792 51.4524 43.1513 51.3612C43.1507 51.3608 43.1501 51.3604 43.1495 51.3599L29.0868 41.1647L28.4998 40.7392L27.9128 41.1647L13.8461 51.3628L13.846 51.3629C13.7172 51.4564 13.562 51.5064 13.4029 51.5058C13.2438 51.5052 13.089 51.4541 12.9609 51.3597C12.8327 51.2654 12.738 51.1327 12.6902 50.9809C12.6424 50.8292 12.6442 50.6662 12.6952 50.5154L12.6954 50.5148L18.1816 34.265L18.4236 33.5482L17.7997 33.1204L3.58098 23.3696L3.58055 23.3693C3.44856 23.2789 3.34893 23.1486 3.29624 22.9976C3.24354 22.8465 3.24054 22.6825 3.28767 22.5297C3.33479 22.3768 3.42958 22.2429 3.55817 22.1477C3.68646 22.0528 3.8417 22.0012 4.0013 22.0006H21.5414H22.2679L22.4924 21.3096L27.7862 5.0182L27.7864 5.01759C27.8352 4.86685 27.9306 4.73546 28.0588 4.64228C28.1869 4.54909 28.3413 4.4989 28.4998 4.4989C28.6583 4.4989 28.8127 4.54909 28.9408 4.64228C29.069 4.73546 29.1644 4.86684 29.2132 5.01758L29.2134 5.01811L34.5072 21.315L34.7316 22.006H35.4582H52.9998H53.0003C53.1605 22.006 53.3165 22.0572 53.4455 22.1522C53.5745 22.2472 53.6696 22.381 53.717 22.534L54.6722 22.238L53.717 22.534C53.7645 22.687 53.7617 22.8512 53.709 23.0025C53.6564 23.1538 53.5567 23.2843 53.4245 23.3748L53.4244 23.3748L39.2002 33.1201L38.5759 33.5479L38.8179 34.2649L44.3009 50.5103L44.301 50.5106C44.3391 50.6233 44.3498 50.7434 44.3322 50.8611C44.3147 50.9788 44.2694 51.0906 44.2001 51.1873C44.1308 51.2841 44.0395 51.3629 43.9337 51.4174C43.828 51.4718 43.7107 51.5003 43.5918 51.5006Z" stroke="#112211" stroke-width="2"/>
</svg>
